  0
SECTION
  2
HEADER
  9
$ACADVER
  1
AC1009
  9
$DWGCODEPAGE
  3
ansi_1252
  9
$INSBASE
 10
0.0
 20
0.0
 30
0.0
  9
$EXTMIN
 10
-127.6488184562139
 20
-40.54888211285562
 30
0.0
  9
$EXTMAX
 10
127.6488184562139
 20
59.66161466311826
 30
0.0
  9
$LIMMIN
 10
0.0
 20
0.0
  9
$LIMMAX
 10
12.0
 20
9.0
  9
$ORTHOMODE
 70
     0
  9
$REGENMODE
 70
     1
  9
$FILLMODE
 70
     1
  9
$QTEXTMODE
 70
     0
  9
$MIRRTEXT
 70
     1
  9
$DRAGMODE
 70
     2
  9
$LTSCALE
 40
1.0
  9
$OSMODE
 70
    37
  9
$ATTMODE
 70
     1
  9
$TEXTSIZE
 40
0.2
  9
$TRACEWID
 40
0.05
  9
$TEXTSTYLE
  7
STANDARD
  9
$CLAYER
  8
0
  9
$CELTYPE
  6
BYLAYER
  9
$CECOLOR
 62
   256
  9
$DIMSCALE
 40
1.0
  9
$DIMASZ
 40
0.18
  9
$DIMEXO
 40
0.0625
  9
$DIMDLI
 40
0.38
  9
$DIMRND
 40
0.0
  9
$DIMDLE
 40
0.0
  9
$DIMEXE
 40
0.18
  9
$DIMTP
 40
0.0
  9
$DIMTM
 40
0.0
  9
$DIMTXT
 40
0.18
  9
$DIMCEN
 40
0.09
  9
$DIMTSZ
 40
0.0
  9
$DIMTOL
 70
     0
  9
$DIMLIM
 70
     0
  9
$DIMTIH
 70
     1
  9
$DIMTOH
 70
     1
  9
$DIMSE1
 70
     0
  9
$DIMSE2
 70
     0
  9
$DIMTAD
 70
     0
  9
$DIMZIN
 70
     0
  9
$DIMBLK
  1

  9
$DIMASO
 70
     1
  9
$DIMSHO
 70
     1
  9
$DIMPOST
  1

  9
$DIMAPOST
  1

  9
$DIMALT
 70
     0
  9
$DIMALTD
 70
     2
  9
$DIMALTF
 40
25.4
  9
$DIMLFAC
 40
1.0
  9
$DIMTOFL
 70
     0
  9
$DIMTVP
 40
0.0
  9
$DIMTIX
 70
     0
  9
$DIMSOXD
 70
     0
  9
$DIMSAH
 70
     0
  9
$DIMBLK1
  1

  9
$DIMBLK2
  1

  9
$DIMSTYLE
  2
STANDARD_ACAD
  9
$DIMCLRD
 70
     0
  9
$DIMCLRE
 70
     0
  9
$DIMCLRT
 70
     0
  9
$DIMTFAC
 40
1.0
  9
$DIMGAP
 40
0.09
  9
$LUNITS
 70
     2
  9
$LUPREC
 70
     3
  9
$SKETCHINC
 40
0.1
  9
$FILLETRAD
 40
0.0
  9
$AUNITS
 70
     0
  9
$AUPREC
 70
     0
  9
$MENU
  1
.
  9
$ELEVATION
 40
0.0
  9
$PELEVATION
 40
0.0
  9
$THICKNESS
 40
0.0
  9
$LIMCHECK
 70
     0
  9
$CHAMFERA
 40
0.0
  9
$CHAMFERB
 40
0.0
  9
$SKPOLY
 70
     0
  9
$TDCREATE
 40
2460829.606352813
  9
$TDUPDATE
 40
2460829.606384757
  9
$TDINDWG
 40
0.0000000116
  9
$TDUSRTIMER
 40
0.0000000116
  9
$USRTIMER
 70
     1
  9
$ANGBASE
 50
0.0
  9
$ANGDIR
 70
     0
  9
$PDMODE
 70
     0
  9
$PDSIZE
 40
0.0
  9
$PLINEWID
 40
0.0
  9
$COORDS
 70
     1
  9
$SPLFRAME
 70
     0
  9
$SPLINETYPE
 70
     6
  9
$SPLINESEGS
 70
     8
  9
$ATTDIA
 70
     0
  9
$ATTREQ
 70
     1
  9
$HANDLING
 70
     1
  9
$HANDSEED
  5
1A3
  9
$SURFTAB1
 70
     6
  9
$SURFTAB2
 70
     6
  9
$SURFTYPE
 70
     6
  9
$SURFU
 70
     6
  9
$SURFV
 70
     6
  9
$UCSNAME
  2

  9
$UCSORG
 10
0.0
 20
0.0
 30
0.0
  9
$UCSXDIR
 10
1.0
 20
0.0
 30
0.0
  9
$UCSYDIR
 10
0.0
 20
1.0
 30
0.0
  9
$PUCSNAME
  2

  9
$PUCSORG
 10
0.0
 20
0.0
 30
0.0
  9
$PUCSXDIR
 10
1.0
 20
0.0
 30
0.0
  9
$PUCSYDIR
 10
0.0
 20
1.0
 30
0.0
  9
$USERI1
 70
     0
  9
$USERI2
 70
     0
  9
$USERI3
 70
     0
  9
$USERI4
 70
     0
  9
$USERI5
 70
     0
  9
$USERR1
 40
0.0
  9
$USERR2
 40
0.0
  9
$USERR3
 40
0.0
  9
$USERR4
 40
0.0
  9
$USERR5
 40
0.0
  9
$WORLDVIEW
 70
     1
  9
$SHADEDGE
 70
     3
  9
$SHADEDIF
 70
    70
  9
$TILEMODE
 70
     1
  9
$MAXACTVP
 70
    64
  9
$PLIMCHECK
 70
     0
  9
$PEXTMIN
 10
1.000000000000000E+20
 20
1.000000000000000E+20
 30
1.000000000000000E+20
  9
$PEXTMAX
 10
-1.000000000000000E+20
 20
-1.000000000000000E+20
 30
-1.000000000000000E+20
  9
$PLIMMIN
 10
0.0
 20
0.0
  9
$PLIMMAX
 10
12.0
 20
9.0
  9
$UNITMODE
 70
     0
  9
$VISRETAIN
 70
     1
  9
$PLINEGEN
 70
     0
  9
$PSLTSCALE
 70
     1
  0
ENDSEC
  0
SECTION
  2
TABLES
  0
TABLE
  2
VPORT
 70
     1
  0
VPORT
  2
*ACTIVE
 70
     0
 10
0.0
 20
0.0
 11
1.0
 21
1.0
 12
10.42990654205607
 22
4.5
 13
0.0
 23
0.0
 14
0.5
 24
0.5
 15
0.5
 25
0.5
 16
0.0
 26
0.0
 36
1.0
 17
0.0
 27
0.0
 37
0.0
 40
9.0
 41
1.972972972850329
 42
50.0
 43
0.0
 44
0.0
 50
0.0
 51
0.0
 71
     0
 72
   100
 73
     1
 74
     3
 75
     0
 76
     0
 77
     0
 78
     0
  0
ENDTAB
  0
TABLE
  2
LTYPE
 70
     1
  0
LTYPE
  2
CONTINUOUS
 70
     0
  3
Solid line
 72
    65
 73
     0
 40
0.0
  0
ENDTAB
  0
TABLE
  2
LAYER
 70
     2
  0
LAYER
  2
0
 70
     0
 62
     7
  6
CONTINUOUS
  0
LAYER
  2
2D_OUTLINE$02_SWITCHPLATE
 70
     0
 62
   172
  6
CONTINUOUS
  0
ENDTAB
  0
TABLE
  2
STYLE
 70
     1
  0
STYLE
  2
STANDARD
 70
     0
 40
0.0
 41
1.0
 50
0.0
 71
     0
 42
0.2
  3
txt
  4

  0
ENDTAB
  0
TABLE
  2
VIEW
 70
     0
  0
ENDTAB
  0
TABLE
  2
UCS
 70
     0
  0
ENDTAB
  0
TABLE
  2
APPID
 70
     2
  0
APPID
  2
ACAD
 70
     0
  0
APPID
  2
RHINO
 70
     0
  0
ENDTAB
  0
TABLE
  2
DIMSTYLE
 70
     1
  0
DIMSTYLE
  2
STANDARD_ACAD
 70
     0
  3

  4

  5

  6

  7

 40
1.0
 41
0.18
 42
0.0625
 43
0.38
 44
0.18
 45
0.0
 46
0.0
 47
0.0
 48
0.0
140
0.18
141
0.09
142
0.0
143
25.4
144
1.0
145
0.0
146
1.0
147
0.09
 71
     0
 72
     0
 73
     1
 74
     1
 75
     0
 76
     0
 77
     0
 78
     0
170
     0
171
     2
172
     0
173
     0
174
     0
175
     0
176
     0
177
     0
178
     0
  0
ENDTAB
  0
ENDSEC
  0
SECTION
  2
BLOCKS
  0
BLOCK
  8
0
  2
$MODEL_SPACE
 70
     0
 10
0.0
 20
0.0
 30
0.0
  3
$MODEL_SPACE
  1

  0
ENDBLK
  5
21
  8
0
  0
BLOCK
 67
     1
  8
0
  2
$PAPER_SPACE
 70
     0
 10
0.0
 20
0.0
 30
0.0
  3
$PAPER_SPACE
  1

  0
ENDBLK
  5
1D
 67
     1
  8
0
  0
ENDSEC
  0
SECTION
  2
ENTITIES
  0
CIRCLE
  5
60
  8
2D_OUTLINE$02_SWITCHPLATE
 10
42.68425590136123
 20
-22.72435078552661
 30
0.0
 40
1.1
210
0.0
220
0.0
230
-1.0
  0
CIRCLE
  5
61
  8
2D_OUTLINE$02_SWITCHPLATE
 10
43.66792969983222
 20
39.13363425355001
 30
0.0
 40
1.1
210
0.0
220
0.0
230
-1.0
  0
CIRCLE
  5
62
  8
2D_OUTLINE$02_SWITCHPLATE
 10
100.7766922306186
 20
44.36748068349462
 30
0.0
 40
1.1
210
0.0
220
0.0
230
-1.0
  0
CIRCLE
  5
63
  8
2D_OUTLINE$02_SWITCHPLATE
 10
107.3926877997288
 20
6.846305293729522
 30
0.0
 40
1.1
210
0.0
220
0.0
230
-1.0
  0
CIRCLE
  5
64
  8
2D_OUTLINE$02_SWITCHPLATE
 10
43.66792969983648
 20
39.13363425352549
 30
0.0
 40
1.1
  0
CIRCLE
  5
65
  8
2D_OUTLINE$02_SWITCHPLATE
 10
100.7766922306229
 20
44.3674806834699
 30
0.0
 40
1.1
  0
CIRCLE
  5
66
  8
2D_OUTLINE$02_SWITCHPLATE
 10
107.3926877997329
 20
6.846305293704781
 30
0.0
 40
1.1
  0
CIRCLE
  5
67
  8
2D_OUTLINE$02_SWITCHPLATE
 10
42.68425590136538
 20
-22.72435078555108
 30
0.0
 40
1.1
  0
POLYLINE
  5
68
  8
2D_OUTLINE$02_SWITCHPLATE
 66
     1
 10
0.0
 20
0.0
 30
0.0
 70
     1
  0
VERTEX
  5
69
  8
2D_OUTLINE$02_SWITCHPLATE
 10
-20.59699751524918
 20
-24.23475610106489
 30
0.0
 42
0.3535165735281666
  0
VERTEX
  5
6A
  8
2D_OUTLINE$02_SWITCHPLATE
 10
-20.79230345281385
 20
-22.9930449729066
 30
0.0
 42
-0.2916818488961298
  0
VERTEX
  5
6B
  8
2D_OUTLINE$02_SWITCHPLATE
 10
-29.61896104499187
 20
9.149707460637966
 30
0.0
 42
0.0312805773287417
  0
VERTEX
  5
6C
  8
2D_OUTLINE$02_SWITCHPLATE
 10
-29.58960364826972
 20
9.27121113654001
 30
0.0
  0
VERTEX
  5
6D
  8
2D_OUTLINE$02_SWITCHPLATE
 10
-23.4269912903433
 20
44.22112256339951
 30
0.0
 42
0.4142135623730948
  0
VERTEX
  5
6E
  8
2D_OUTLINE$02_SWITCHPLATE
 10
-24.23815086568858
 20
45.37957849407866
 30
0.0
  0
VERTEX
  5
6F
  8
2D_OUTLINE$02_SWITCHPLATE
 10
-41.02912305454673
 20
48.34027992329983
 30
0.0
 42
-0.4142135623731047
  0
VERTEX
  5
70
  8
2D_OUTLINE$02_SWITCHPLATE
 10
-41.840282629892
 20
49.498735853979
 30
0.0
  0
VERTEX
  5
71
  8
2D_OUTLINE$02_SWITCHPLATE
 10
-41.77407926215649
 20
49.87419380981481
 30
0.0
 42
0.4142135623731074
  0
VERTEX
  5
72
  8
2D_OUTLINE$02_SWITCHPLATE
 10
-42.58523883750176
 20
51.03264974049397
 30
0.0
  0
VERTEX
  5
73
  8
2D_OUTLINE$02_SWITCHPLATE
 10
-59.37621102635985
 20
53.99335116971514
 30
0.0
 42
-0.414213562373089
  0
VERTEX
  5
74
  8
2D_OUTLINE$02_SWITCHPLATE
 10
-60.18737060170513
 20
55.15180710039428
 30
0.0
  0
VERTEX
  5
75
  8
2D_OUTLINE$02_SWITCHPLATE
 10
-60.12116723396962
 20
55.52726505623016
 30
0.0
 42
0.4142135623730964
  0
VERTEX
  5
76
  8
2D_OUTLINE$02_SWITCHPLATE
 10
-60.93232680931489
 20
56.68572098690931
 30
0.0
  0
VERTEX
  5
77
  8
2D_OUTLINE$02_SWITCHPLATE
 10
-77.72329899817308
 20
59.64642241613046
 30
0.0
 42
0.414213562373097
  0
VERTEX
  5
78
  8
2D_OUTLINE$02_SWITCHPLATE
 10
-78.88175492885222
 20
58.83526284078518
 30
0.0
  0
VERTEX
  5
79
  8
2D_OUTLINE$02_SWITCHPLATE
 10
-79.3614580196571
 20
56.11473142308895
 30
0.0
 42
-0.4142135623730982
  0
VERTEX
  5
7A
  8
2D_OUTLINE$02_SWITCHPLATE
 10
-80.51991395033625
 20
55.30357184774369
 30
0.0
  0
VERTEX
  5
7B
  8
2D_OUTLINE$02_SWITCHPLATE
 10
-97.3108861391944
 20
58.26427327696484
 30
0.0
 42
0.414213562373092
  0
VERTEX
  5
7C
  8
2D_OUTLINE$02_SWITCHPLATE
 10
-98.46934206987352
 20
57.45311370161957
 30
0.0
  0
VERTEX
  5
7D
  8
2D_OUTLINE$02_SWITCHPLATE
 10
-98.94904516067842
 20
54.73258228392336
 30
0.0
 42
-0.4142135623730815
  0
VERTEX
  5
7E
  8
2D_OUTLINE$02_SWITCHPLATE
 10
-100.1075010913576
 20
53.92142270857807
 30
0.0
  0
VERTEX
  5
7F
  8
2D_OUTLINE$02_SWITCHPLATE
 10
-116.8984732802157
 20
56.88212413779925
 30
0.0
 42
0.4142135623730951
  0
VERTEX
  5
80
  8
2D_OUTLINE$02_SWITCHPLATE
 10
-118.0569292108949
 20
56.07096456245396
 30
0.0
  0
VERTEX
  5
81
  8
2D_OUTLINE$02_SWITCHPLATE
 10
-127.6336262092261
 20
1.758816983830721
 30
0.0
 42
0.4142135623730908
  0
VERTEX
  5
82
  8
2D_OUTLINE$02_SWITCHPLATE
 10
-126.8224666338808
 20
0.6003610531515825
 30
0.0
  0
VERTEX
  5
83
  8
2D_OUTLINE$02_SWITCHPLATE
 10
-110.0314944450227
 20
-2.360340376069583
 30
0.0
 42
0.4142135623731131
  0
VERTEX
  5
84
  8
2D_OUTLINE$02_SWITCHPLATE
 10
-108.8730385143435
 20
-1.549180800724313
 30
0.0
  0
VERTEX
  5
85
  8
2D_OUTLINE$02_SWITCHPLATE
 10
-108.3933354235386
 20
1.171350616971983
 30
0.0
 42
-0.4142135623731152
  0
VERTEX
  5
86
  8
2D_OUTLINE$02_SWITCHPLATE
 10
-107.2348794928595
 20
1.982510192317246
 30
0.0
  0
VERTEX
  5
87
  8
2D_OUTLINE$02_SWITCHPLATE
 10
-90.44390730400141
 20
-0.9781912369039055
 30
0.0
 42
0.4142135623730823
  0
VERTEX
  5
88
  8
2D_OUTLINE$02_SWITCHPLATE
 10
-89.28545137332227
 20
-0.1670316615586356
 30
0.0
  0
VERTEX
  5
89
  8
2D_OUTLINE$02_SWITCHPLATE
 10
-88.8057482825174
 20
2.553499756137503
 30
0.0
 42
-0.4142135623731037
  0
VERTEX
  5
8A
  8
2D_OUTLINE$02_SWITCHPLATE
 10
-87.64729235183826
 20
3.364659331482768
 30
0.0
  0
VERTEX
  5
8B
  8
2D_OUTLINE$02_SWITCHPLATE
 10
-80.23661401042128
 20
2.057956794539098
 30
0.0
 42
-0.4142135623731033
  0
VERTEX
  5
8C
  8
2D_OUTLINE$02_SWITCHPLATE
 10
-79.42545443507599
 20
0.8995008638599573
 30
0.0
  0
VERTEX
  5
8D
  8
2D_OUTLINE$02_SWITCHPLATE
 10
-83.2131553104359
 20
-20.58161824871877
 30
0.0
 42
0.4142135623730896
  0
VERTEX
  5
8E
  8
2D_OUTLINE$02_SWITCHPLATE
 10
-82.40199573509064
 20
-21.74007417939789
 30
0.0
  0
VERTEX
  5
8F
  8
2D_OUTLINE$02_SWITCHPLATE
 10
-64.71237530736127
 20
-24.85923153929821
 30
0.0
 42
-0.043660942908523
  0
VERTEX
  5
90
  8
2D_OUTLINE$02_SWITCHPLATE
 10
-64.54400334170258
 20
-24.9043466715245
 30
0.0
  0
VERTEX
  5
91
  8
2D_OUTLINE$02_SWITCHPLATE
 10
-46.80728381876647
 20
-31.35998463140152
 30
0.0
 42
-0.0436609429085114
  0
VERTEX
  5
92
  8
2D_OUTLINE$02_SWITCHPLATE
 10
-46.64930396209218
 20
-31.43365184840298
 30
0.0
  0
VERTEX
  5
93
  8
2D_OUTLINE$02_SWITCHPLATE
 10
-31.0933128289397
 20
-40.41490751664006
 30
0.0
 42
0.4142135623730847
  0
VERTEX
  5
94
  8
2D_OUTLINE$02_SWITCHPLATE
 10
-29.72728742515526
 20
-40.04888211285563
 30
0.0
  0
SEQEND
  5
95
  8
2D_OUTLINE$02_SWITCHPLATE
  0
POLYLINE
  5
96
  8
2D_OUTLINE$02_SWITCHPLATE
 66
     1
 10
0.0
 20
0.0
 30
0.0
 70
     1
  0
VERTEX
  5
97
  8
2D_OUTLINE$02_SWITCHPLATE
 10
20.59699751524918
 20
-24.23475610106489
 30
0.0
 42
-0.3535165735281666
  0
VERTEX
  5
98
  8
2D_OUTLINE$02_SWITCHPLATE
 10
20.79230345281385
 20
-22.9930449729066
 30
0.0
 42
0.2916818488961298
  0
VERTEX
  5
99
  8
2D_OUTLINE$02_SWITCHPLATE
 10
29.61896104499187
 20
9.149707460637966
 30
0.0
 42
-0.0312805773287417
  0
VERTEX
  5
9A
  8
2D_OUTLINE$02_SWITCHPLATE
 10
29.58960364826972
 20
9.27121113654001
 30
0.0
  0
VERTEX
  5
9B
  8
2D_OUTLINE$02_SWITCHPLATE
 10
23.4269912903433
 20
44.22112256339951
 30
0.0
 42
-0.4142135623730948
  0
VERTEX
  5
9C
  8
2D_OUTLINE$02_SWITCHPLATE
 10
24.23815086568858
 20
45.37957849407866
 30
0.0
  0
VERTEX
  5
9D
  8
2D_OUTLINE$02_SWITCHPLATE
 10
41.02912305454673
 20
48.34027992329983
 30
0.0
 42
0.4142135623731047
  0
VERTEX
  5
9E
  8
2D_OUTLINE$02_SWITCHPLATE
 10
41.840282629892
 20
49.498735853979
 30
0.0
  0
VERTEX
  5
9F
  8
2D_OUTLINE$02_SWITCHPLATE
 10
41.77407926215649
 20
49.87419380981481
 30
0.0
 42
-0.4142135623731074
  0
VERTEX
  5
A0
  8
2D_OUTLINE$02_SWITCHPLATE
 10
42.58523883750176
 20
51.03264974049397
 30
0.0
  0
VERTEX
  5
A1
  8
2D_OUTLINE$02_SWITCHPLATE
 10
59.37621102635985
 20
53.99335116971514
 30
0.0
 42
0.414213562373089
  0
VERTEX
  5
A2
  8
2D_OUTLINE$02_SWITCHPLATE
 10
60.18737060170513
 20
55.15180710039428
 30
0.0
  0
VERTEX
  5
A3
  8
2D_OUTLINE$02_SWITCHPLATE
 10
60.12116723396962
 20
55.52726505623016
 30
0.0
 42
-0.4142135623730964
  0
VERTEX
  5
A4
  8
2D_OUTLINE$02_SWITCHPLATE
 10
60.93232680931489
 20
56.68572098690931
 30
0.0
  0
VERTEX
  5
A5
  8
2D_OUTLINE$02_SWITCHPLATE
 10
77.72329899817308
 20
59.64642241613046
 30
0.0
 42
-0.414213562373097
  0
VERTEX
  5
A6
  8
2D_OUTLINE$02_SWITCHPLATE
 10
78.88175492885222
 20
58.83526284078518
 30
0.0
  0
VERTEX
  5
A7
  8
2D_OUTLINE$02_SWITCHPLATE
 10
79.3614580196571
 20
56.11473142308895
 30
0.0
 42
0.4142135623730982
  0
VERTEX
  5
A8
  8
2D_OUTLINE$02_SWITCHPLATE
 10
80.51991395033625
 20
55.30357184774369
 30
0.0
  0
VERTEX
  5
A9
  8
2D_OUTLINE$02_SWITCHPLATE
 10
97.3108861391944
 20
58.26427327696484
 30
0.0
 42
-0.414213562373092
  0
VERTEX
  5
AA
  8
2D_OUTLINE$02_SWITCHPLATE
 10
98.46934206987352
 20
57.45311370161957
 30
0.0
  0
VERTEX
  5
AB
  8
2D_OUTLINE$02_SWITCHPLATE
 10
98.94904516067842
 20
54.73258228392336
 30
0.0
 42
0.4142135623730815
  0
VERTEX
  5
AC
  8
2D_OUTLINE$02_SWITCHPLATE
 10
100.1075010913576
 20
53.92142270857807
 30
0.0
  0
VERTEX
  5
AD
  8
2D_OUTLINE$02_SWITCHPLATE
 10
116.8984732802157
 20
56.88212413779925
 30
0.0
 42
-0.4142135623730951
  0
VERTEX
  5
AE
  8
2D_OUTLINE$02_SWITCHPLATE
 10
118.0569292108949
 20
56.07096456245396
 30
0.0
  0
VERTEX
  5
AF
  8
2D_OUTLINE$02_SWITCHPLATE
 10
127.6336262092261
 20
1.758816983830721
 30
0.0
 42
-0.4142135623730908
  0
VERTEX
  5
B0
  8
2D_OUTLINE$02_SWITCHPLATE
 10
126.8224666338808
 20
0.6003610531515825
 30
0.0
  0
VERTEX
  5
B1
  8
2D_OUTLINE$02_SWITCHPLATE
 10
110.0314944450227
 20
-2.360340376069583
 30
0.0
 42
-0.4142135623731131
  0
VERTEX
  5
B2
  8
2D_OUTLINE$02_SWITCHPLATE
 10
108.8730385143435
 20
-1.549180800724313
 30
0.0
  0
VERTEX
  5
B3
  8
2D_OUTLINE$02_SWITCHPLATE
 10
108.3933354235386
 20
1.171350616971983
 30
0.0
 42
0.4142135623731152
  0
VERTEX
  5
B4
  8
2D_OUTLINE$02_SWITCHPLATE
 10
107.2348794928595
 20
1.982510192317246
 30
0.0
  0
VERTEX
  5
B5
  8
2D_OUTLINE$02_SWITCHPLATE
 10
90.44390730400141
 20
-0.9781912369039055
 30
0.0
 42
-0.4142135623730823
  0
VERTEX
  5
B6
  8
2D_OUTLINE$02_SWITCHPLATE
 10
89.28545137332227
 20
-0.1670316615586356
 30
0.0
  0
VERTEX
  5
B7
  8
2D_OUTLINE$02_SWITCHPLATE
 10
88.8057482825174
 20
2.553499756137503
 30
0.0
 42
0.4142135623731037
  0
VERTEX
  5
B8
  8
2D_OUTLINE$02_SWITCHPLATE
 10
87.64729235183826
 20
3.364659331482768
 30
0.0
  0
VERTEX
  5
B9
  8
2D_OUTLINE$02_SWITCHPLATE
 10
80.23661401042128
 20
2.057956794539098
 30
0.0
 42
0.4142135623731033
  0
VERTEX
  5
BA
  8
2D_OUTLINE$02_SWITCHPLATE
 10
79.42545443507599
 20
0.8995008638599573
 30
0.0
  0
VERTEX
  5
BB
  8
2D_OUTLINE$02_SWITCHPLATE
 10
83.2131553104359
 20
-20.58161824871877
 30
0.0
 42
-0.4142135623730896
  0
VERTEX
  5
BC
  8
2D_OUTLINE$02_SWITCHPLATE
 10
82.40199573509064
 20
-21.74007417939789
 30
0.0
  0
VERTEX
  5
BD
  8
2D_OUTLINE$02_SWITCHPLATE
 10
64.71237530736127
 20
-24.85923153929821
 30
0.0
 42
0.043660942908523
  0
VERTEX
  5
BE
  8
2D_OUTLINE$02_SWITCHPLATE
 10
64.54400334170258
 20
-24.9043466715245
 30
0.0
  0
VERTEX
  5
BF
  8
2D_OUTLINE$02_SWITCHPLATE
 10
46.80728381876647
 20
-31.35998463140152
 30
0.0
 42
0.0436609429085114
  0
VERTEX
  5
C0
  8
2D_OUTLINE$02_SWITCHPLATE
 10
46.64930396209218
 20
-31.43365184840298
 30
0.0
  0
VERTEX
  5
C1
  8
2D_OUTLINE$02_SWITCHPLATE
 10
31.0933128289397
 20
-40.41490751664006
 30
0.0
 42
-0.4142135623730847
  0
VERTEX
  5
C2
  8
2D_OUTLINE$02_SWITCHPLATE
 10
29.72728742515526
 20
-40.04888211285563
 30
0.0
  0
SEQEND
  5
C3
  8
2D_OUTLINE$02_SWITCHPLATE
  0
POLYLINE
  5
C4
  8
2D_OUTLINE$02_SWITCHPLATE
 66
     1
 10
0.0
 20
0.0
 30
0.0
 70
     1
1001
RHINO
1002
{
1000
Row
1000
4
1002
}
  0
VERTEX
  5
C5
  8
2D_OUTLINE$02_SWITCHPLATE
 10
30.90529963145795
 20
-37.50910541650114
 30
0.0
  0
VERTEX
  5
C6
  8
2D_OUTLINE$02_SWITCHPLATE
 10
43.02965528444004
 20
-30.5091054165011
 30
0.0
  0
VERTEX
  5
C7
  8
2D_OUTLINE$02_SWITCHPLATE
 10
36.02965528444
 20
-18.38474976351895
 30
0.0
  0
VERTEX
  5
C8
  8
2D_OUTLINE$02_SWITCHPLATE
 10
23.90529963145788
 20
-25.384749763519
 30
0.0
  0
SEQEND
  5
C9
  8
2D_OUTLINE$02_SWITCHPLATE
  0
POLYLINE
  5
CA
  8
2D_OUTLINE$02_SWITCHPLATE
 66
     1
 10
0.0
 20
0.0
 30
0.0
 70
     1
1001
RHINO
1002
{
1000
Row
1000
4
1002
}
  0
VERTEX
  5
CB
  8
2D_OUTLINE$02_SWITCHPLATE
 10
47.98799243458284
 20
-28.19699483167507
 30
0.0
  0
VERTEX
  5
CC
  8
2D_OUTLINE$02_SWITCHPLATE
 10
61.14368912558553
 20
-23.40871282511569
 30
0.0
  0
VERTEX
  5
CD
  8
2D_OUTLINE$02_SWITCHPLATE
 10
56.35540711902615
 20
-10.25301613411295
 30
0.0
  0
VERTEX
  5
CE
  8
2D_OUTLINE$02_SWITCHPLATE
 10
43.19971042802344
 20
-15.04129814067234
 30
0.0
  0
SEQEND
  5
CF
  8
2D_OUTLINE$02_SWITCHPLATE
  0
POLYLINE
  5
D0
  8
2D_OUTLINE$02_SWITCHPLATE
 66
     1
 10
0.0
 20
0.0
 30
0.0
 70
     1
1001
RHINO
1002
{
1000
Row
1000
4
1002
}
  0
VERTEX
  5
D1
  8
2D_OUTLINE$02_SWITCHPLATE
 10
66.42819178271408
 20
-21.99273460573797
 30
0.0
  0
VERTEX
  5
D2
  8
2D_OUTLINE$02_SWITCHPLATE
 10
80.21550032488497
 20
-19.56166011840094
 30
0.0
  0
VERTEX
  5
D3
  8
2D_OUTLINE$02_SWITCHPLATE
 10
77.78442583754796
 20
-5.774351576230001
 30
0.0
  0
VERTEX
  5
D4
  8
2D_OUTLINE$02_SWITCHPLATE
 10
63.99711729537704
 20
-8.205426063567032
 30
0.0
  0
SEQEND
  5
D5
  8
2D_OUTLINE$02_SWITCHPLATE
  0
POLYLINE
  5
D6
  8
2D_OUTLINE$02_SWITCHPLATE
 66
     1
 10
0.0
 20
0.0
 30
0.0
 70
     1
1001
RHINO
1002
{
1000
Row
1000
4
1002
}
  0
VERTEX
  5
D7
  8
2D_OUTLINE$02_SWITCHPLATE
 10
124.6359712236751
 20
2.778775114148607
 30
0.0
  0
VERTEX
  5
D8
  8
2D_OUTLINE$02_SWITCHPLATE
 10
110.8486626815042
 20
0.3477006268115792
 30
0.0
  0
VERTEX
  5
D9
  8
2D_OUTLINE$02_SWITCHPLATE
 10
108.4175881941672
 20
14.13500916898252
 30
0.0
  0
VERTEX
  5
DA
  8
2D_OUTLINE$02_SWITCHPLATE
 10
122.2048967363381
 20
16.56608365631955
 30
0.0
  0
SEQEND
  5
DB
  8
2D_OUTLINE$02_SWITCHPLATE
  0
POLYLINE
  5
DC
  8
2D_OUTLINE$02_SWITCHPLATE
 66
     1
 10
0.0
 20
0.0
 30
0.0
 70
     1
1001
RHINO
1002
{
1000
Row
1000
3
1002
}
  0
VERTEX
  5
DD
  8
2D_OUTLINE$02_SWITCHPLATE
 10
121.3279734391201
 20
21.53936280903125
 30
0.0
  0
VERTEX
  5
DE
  8
2D_OUTLINE$02_SWITCHPLATE
 10
107.5406648969492
 20
19.10828832169422
 30
0.0
  0
VERTEX
  5
DF
  8
2D_OUTLINE$02_SWITCHPLATE
 10
105.1095904096121
 20
32.8955968638651
 30
0.0
  0
VERTEX
  5
E0
  8
2D_OUTLINE$02_SWITCHPLATE
 10
118.8968989517831
 20
35.32667135120213
 30
0.0
  0
SEQEND
  5
E1
  8
2D_OUTLINE$02_SWITCHPLATE
  0
POLYLINE
  5
E2
  8
2D_OUTLINE$02_SWITCHPLATE
 66
     1
 10
0.0
 20
0.0
 30
0.0
 70
     1
1001
RHINO
1002
{
1000
Row
1000
2
1002
}
  0
VERTEX
  5
E3
  8
2D_OUTLINE$02_SWITCHPLATE
 10
98.43238851354376
 20
41.68209964307934
 30
0.0
  0
VERTEX
  5
E4
  8
2D_OUTLINE$02_SWITCHPLATE
 10
84.64507997137281
 20
39.25102515574231
 30
0.0
  0
VERTEX
  5
E5
  8
2D_OUTLINE$02_SWITCHPLATE
 10
82.21400548403581
 20
53.03833369791319
 30
0.0
  0
VERTEX
  5
E6
  8
2D_OUTLINE$02_SWITCHPLATE
 10
96.00131402620673
 20
55.46940818525022
 30
0.0
  0
SEQEND
  5
E7
  8
2D_OUTLINE$02_SWITCHPLATE
  0
POLYLINE
  5
E8
  8
2D_OUTLINE$02_SWITCHPLATE
 66
     1
 10
0.0
 20
0.0
 30
0.0
 70
     1
1001
RHINO
1002
{
1000
Row
1000
4
1002
}
  0
VERTEX
  5
E9
  8
2D_OUTLINE$02_SWITCHPLATE
 10
105.0483840826539
 20
4.160924253314282
 30
0.0
  0
VERTEX
  5
EA
  8
2D_OUTLINE$02_SWITCHPLATE
 10
91.26107554048298
 20
1.729849765977252
 30
0.0
  0
VERTEX
  5
EB
  8
2D_OUTLINE$02_SWITCHPLATE
 10
88.83000105314596
 20
15.51715830814819
 30
0.0
  0
VERTEX
  5
EC
  8
2D_OUTLINE$02_SWITCHPLATE
 10
102.6173095953169
 20
17.94823279548523
 30
0.0
  0
SEQEND
  5
ED
  8
2D_OUTLINE$02_SWITCHPLATE
  0
POLYLINE
  5
EE
  8
2D_OUTLINE$02_SWITCHPLATE
 66
     1
 10
0.0
 20
0.0
 30
0.0
 70
     1
1001
RHINO
1002
{
1000
Row
1000
3
1002
}
  0
VERTEX
  5
EF
  8
2D_OUTLINE$02_SWITCHPLATE
 10
101.7403862980988
 20
22.92151194819682
 30
0.0
  0
VERTEX
  5
F0
  8
2D_OUTLINE$02_SWITCHPLATE
 10
87.9530777559279
 20
20.49043746085979
 30
0.0
  0
VERTEX
  5
F1
  8
2D_OUTLINE$02_SWITCHPLATE
 10
85.52200326859088
 20
34.27774600303066
 30
0.0
  0
VERTEX
  5
F2
  8
2D_OUTLINE$02_SWITCHPLATE
 10
99.30931181076181
 20
36.70882049036769
 30
0.0
  0
SEQEND
  5
F3
  8
2D_OUTLINE$02_SWITCHPLATE
  0
POLYLINE
  5
F4
  8
2D_OUTLINE$02_SWITCHPLATE
 66
     1
 10
0.0
 20
0.0
 30
0.0
 70
     1
1001
RHINO
1002
{
1000
Row
1000
3
1002
}
  0
VERTEX
  5
F5
  8
2D_OUTLINE$02_SWITCHPLATE
 10
68.36549061490652
 20
21.87258660002545
 30
0.0
  0
VERTEX
  5
F6
  8
2D_OUTLINE$02_SWITCHPLATE
 10
82.15279915707742
 20
24.30366108736248
 30
0.0
  0
VERTEX
  5
F7
  8
2D_OUTLINE$02_SWITCHPLATE
 10
79.72172466974041
 20
38.09096962953336
 30
0.0
  0
VERTEX
  5
F8
  8
2D_OUTLINE$02_SWITCHPLATE
 10
65.93441612756949
 20
35.65989514219633
 30
0.0
  0
SEQEND
  5
F9
  8
2D_OUTLINE$02_SWITCHPLATE
  0
POLYLINE
  5
FA
  8
2D_OUTLINE$02_SWITCHPLATE
 66
     1
 10
0.0
 20
0.0
 30
0.0
 70
     1
1001
RHINO
1002
{
1000
Row
1000
4
1002
}
  0
VERTEX
  5
FB
  8
2D_OUTLINE$02_SWITCHPLATE
 10
71.67348839946156
 20
3.111998905142746
 30
0.0
  0
VERTEX
  5
FC
  8
2D_OUTLINE$02_SWITCHPLATE
 10
85.46079694163245
 20
5.543073392479772
 30
0.0
  0
VERTEX
  5
FD
  8
2D_OUTLINE$02_SWITCHPLATE
 10
83.02972245429544
 20
19.33038193465071
 30
0.0
  0
VERTEX
  5
FE
  8
2D_OUTLINE$02_SWITCHPLATE
 10
69.24241391212452
 20
16.89930744731368
 30
0.0
  0
SEQEND
  5
FF
  8
2D_OUTLINE$02_SWITCHPLATE
  0
POLYLINE
  5
100
  8
2D_OUTLINE$02_SWITCHPLATE
 66
     1
 10
0.0
 20
0.0
 30
0.0
 70
     1
1001
RHINO
1002
{
1000
Row
1000
2
1002
}
  0
VERTEX
  5
101
  8
2D_OUTLINE$02_SWITCHPLATE
 10
65.05749283035149
 20
40.63317429490792
 30
0.0
  0
VERTEX
  5
102
  8
2D_OUTLINE$02_SWITCHPLATE
 10
78.84480137252243
 20
43.06424878224495
 30
0.0
  0
VERTEX
  5
103
  8
2D_OUTLINE$02_SWITCHPLATE
 10
76.41372688518541
 20
56.85155732441584
 30
0.0
  0
VERTEX
  5
104
  8
2D_OUTLINE$02_SWITCHPLATE
 10
62.62641834301446
 20
54.42048283707881
 30
0.0
  0
SEQEND
  5
105
  8
2D_OUTLINE$02_SWITCHPLATE
  0
POLYLINE
  5
106
  8
2D_OUTLINE$02_SWITCHPLATE
 66
     1
 10
0.0
 20
0.0
 30
0.0
 70
     1
1001
RHINO
1002
{
1000
Row
1000
3
1002
}
  0
VERTEX
  5
107
  8
2D_OUTLINE$02_SWITCHPLATE
 10
31.6713146712802
 20
10.56644410719476
 30
0.0
  0
VERTEX
  5
108
  8
2D_OUTLINE$02_SWITCHPLATE
 10
45.45862321345109
 20
12.99751859453179
 30
0.0
  0
VERTEX
  5
109
  8
2D_OUTLINE$02_SWITCHPLATE
 10
43.02754872611406
 20
26.78482713670267
 30
0.0
  0
VERTEX
  5
10A
  8
2D_OUTLINE$02_SWITCHPLATE
 10
29.24024018394318
 20
24.35375264936564
 30
0.0
  0
SEQEND
  5
10B
  8
2D_OUTLINE$02_SWITCHPLATE
  0
POLYLINE
  5
10C
  8
2D_OUTLINE$02_SWITCHPLATE
 66
     1
 10
0.0
 20
0.0
 30
0.0
 70
     1
1001
RHINO
1002
{
1000
Row
1000
4
1002
}
  0
VERTEX
  5
10D
  8
2D_OUTLINE$02_SWITCHPLATE
 10
34.97931245583523
 20
-8.19414358768794
 30
0.0
  0
VERTEX
  5
10E
  8
2D_OUTLINE$02_SWITCHPLATE
 10
48.76662099800618
 20
-5.763069100350912
 30
0.0
  0
VERTEX
  5
10F
  8
2D_OUTLINE$02_SWITCHPLATE
 10
46.33554651066915
 20
8.024239441820022
 30
0.0
  0
VERTEX
  5
110
  8
2D_OUTLINE$02_SWITCHPLATE
 10
32.5482379684982
 20
5.593164954482994
 30
0.0
  0
SEQEND
  5
111
  8
2D_OUTLINE$02_SWITCHPLATE
  0
POLYLINE
  5
112
  8
2D_OUTLINE$02_SWITCHPLATE
 66
     1
 10
0.0
 20
0.0
 30
0.0
 70
     1
1001
RHINO
1002
{
1000
Row
1000
2
1002
}
  0
VERTEX
  5
113
  8
2D_OUTLINE$02_SWITCHPLATE
 10
28.36331688672517
 20
29.32703180207729
 30
0.0
  0
VERTEX
  5
114
  8
2D_OUTLINE$02_SWITCHPLATE
 10
42.15062542889612
 20
31.75810628941432
 30
0.0
  0
VERTEX
  5
115
  8
2D_OUTLINE$02_SWITCHPLATE
 10
39.71955094155909
 20
45.54541483158521
 30
0.0
  0
VERTEX
  5
116
  8
2D_OUTLINE$02_SWITCHPLATE
 10
25.93224239938815
 20
43.11434034424817
 30
0.0
  0
SEQEND
  5
117
  8
2D_OUTLINE$02_SWITCHPLATE
  0
POLYLINE
  5
118
  8
2D_OUTLINE$02_SWITCHPLATE
 66
     1
 10
0.0
 20
0.0
 30
0.0
 70
     1
1001
RHINO
1002
{
1000
Row
1000
4
1002
}
  0
VERTEX
  5
119
  8
2D_OUTLINE$02_SWITCHPLATE
 10
53.32640042764834
 20
-2.541072341272633
 30
0.0
  0
VERTEX
  5
11A
  8
2D_OUTLINE$02_SWITCHPLATE
 10
67.11370896981927
 20
-0.1099978539356048
 30
0.0
  0
VERTEX
  5
11B
  8
2D_OUTLINE$02_SWITCHPLATE
 10
64.68263448248226
 20
13.67731068823527
 30
0.0
  0
VERTEX
  5
11C
  8
2D_OUTLINE$02_SWITCHPLATE
 10
50.89532594031131
 20
11.24623620089825
 30
0.0
  0
SEQEND
  5
11D
  8
2D_OUTLINE$02_SWITCHPLATE
  0
POLYLINE
  5
11E
  8
2D_OUTLINE$02_SWITCHPLATE
 66
     1
 10
0.0
 20
0.0
 30
0.0
 70
     1
1001
RHINO
1002
{
1000
Row
1000
3
1002
}
  0
VERTEX
  5
11F
  8
2D_OUTLINE$02_SWITCHPLATE
 10
50.01840264309331
 20
16.21951535361007
 30
0.0
  0
VERTEX
  5
120
  8
2D_OUTLINE$02_SWITCHPLATE
 10
63.80571118526422
 20
18.65058984094709
 30
0.0
  0
VERTEX
  5
121
  8
2D_OUTLINE$02_SWITCHPLATE
 10
61.37463669792719
 20
32.43789838311798
 30
0.0
  0
VERTEX
  5
122
  8
2D_OUTLINE$02_SWITCHPLATE
 10
47.58732815575628
 20
30.00682389578095
 30
0.0
  0
SEQEND
  5
123
  8
2D_OUTLINE$02_SWITCHPLATE
  0
POLYLINE
  5
124
  8
2D_OUTLINE$02_SWITCHPLATE
 66
     1
 10
0.0
 20
0.0
 30
0.0
 70
     1
1001
RHINO
1002
{
1000
Row
1000
2
1002
}
  0
VERTEX
  5
125
  8
2D_OUTLINE$02_SWITCHPLATE
 10
46.71040485853834
 20
34.98010304849254
 30
0.0
  0
VERTEX
  5
126
  8
2D_OUTLINE$02_SWITCHPLATE
 10
60.49771340070922
 20
37.41117753582957
 30
0.0
  0
VERTEX
  5
127
  8
2D_OUTLINE$02_SWITCHPLATE
 10
58.06663891337219
 20
51.19848607800051
 30
0.0
  0
VERTEX
  5
128
  8
2D_OUTLINE$02_SWITCHPLATE
 10
44.2793303712013
 20
48.76741159066349
 30
0.0
  0
SEQEND
  5
129
  8
2D_OUTLINE$02_SWITCHPLATE
  0
POLYLINE
  5
12A
  8
2D_OUTLINE$02_SWITCHPLATE
 66
     1
 10
0.0
 20
0.0
 30
0.0
 70
     1
1001
RHINO
1002
{
1000
Row
1000
2
1002
}
  0
VERTEX
  5
12B
  8
2D_OUTLINE$02_SWITCHPLATE
 10
118.0199756545651
 20
40.29995050391378
 30
0.0
  0
VERTEX
  5
12C
  8
2D_OUTLINE$02_SWITCHPLATE
 10
104.2326671123941
 20
37.86887601657676
 30
0.0
  0
VERTEX
  5
12D
  8
2D_OUTLINE$02_SWITCHPLATE
 10
101.8015926250571
 20
51.65618455874758
 30
0.0
  0
VERTEX
  5
12E
  8
2D_OUTLINE$02_SWITCHPLATE
 10
115.5889011672281
 20
54.08725904608461
 30
0.0
  0
SEQEND
  5
12F
  8
2D_OUTLINE$02_SWITCHPLATE
  0
POLYLINE
  5
130
  8
2D_OUTLINE$02_SWITCHPLATE
 66
     1
 10
0.0
 20
0.0
 30
0.0
 70
     1
1001
RHINO
1002
{
1000
Row
1000
2
1002
}
  0
VERTEX
  5
131
  8
2D_OUTLINE$02_SWITCHPLATE
 10
-118.0199756545608
 20
40.29995050393856
 30
0.0
  0
VERTEX
  5
132
  8
2D_OUTLINE$02_SWITCHPLATE
 10
-104.2326671123899
 20
37.86887601660148
 30
0.0
  0
VERTEX
  5
133
  8
2D_OUTLINE$02_SWITCHPLATE
 10
-101.8015926250528
 20
51.6561845587723
 30
0.0
  0
VERTEX
  5
134
  8
2D_OUTLINE$02_SWITCHPLATE
 10
-115.5889011672238
 20
54.08725904610938
 30
0.0
  0
SEQEND
  5
135
  8
2D_OUTLINE$02_SWITCHPLATE
  0
POLYLINE
  5
136
  8
2D_OUTLINE$02_SWITCHPLATE
 66
     1
 10
0.0
 20
0.0
 30
0.0
 70
     1
1001
RHINO
1002
{
1000
Row
1000
2
1002
}
  0
VERTEX
  5
137
  8
2D_OUTLINE$02_SWITCHPLATE
 10
-46.7104048585341
 20
34.98010304851707
 30
0.0
  0
VERTEX
  5
138
  8
2D_OUTLINE$02_SWITCHPLATE
 10
-60.49771340070497
 20
37.41117753585414
 30
0.0
  0
VERTEX
  5
139
  8
2D_OUTLINE$02_SWITCHPLATE
 10
-58.06663891336789
 20
51.19848607802508
 30
0.0
  0
VERTEX
  5
13A
  8
2D_OUTLINE$02_SWITCHPLATE
 10
-44.27933037119701
 20
48.76741159068801
 30
0.0
  0
SEQEND
  5
13B
  8
2D_OUTLINE$02_SWITCHPLATE
  0
POLYLINE
  5
13C
  8
2D_OUTLINE$02_SWITCHPLATE
 66
     1
 10
0.0
 20
0.0
 30
0.0
 70
     1
1001
RHINO
1002
{
1000
Row
1000
3
1002
}
  0
VERTEX
  5
13D
  8
2D_OUTLINE$02_SWITCHPLATE
 10
-50.01840264308913
 20
16.21951535363461
 30
0.0
  0
VERTEX
  5
13E
  8
2D_OUTLINE$02_SWITCHPLATE
 10
-63.80571118526003
 20
18.65058984097168
 30
0.0
  0
VERTEX
  5
13F
  8
2D_OUTLINE$02_SWITCHPLATE
 10
-61.37463669792295
 20
32.43789838314256
 30
0.0
  0
VERTEX
  5
140
  8
2D_OUTLINE$02_SWITCHPLATE
 10
-47.58732815575205
 20
30.00682389580548
 30
0.0
  0
SEQEND
  5
141
  8
2D_OUTLINE$02_SWITCHPLATE
  0
POLYLINE
  5
142
  8
2D_OUTLINE$02_SWITCHPLATE
 66
     1
 10
0.0
 20
0.0
 30
0.0
 70
     1
1001
RHINO
1002
{
1000
Row
1000
4
1002
}
  0
VERTEX
  5
143
  8
2D_OUTLINE$02_SWITCHPLATE
 10
-53.32640042764422
 20
-2.541072341248079
 30
0.0
  0
VERTEX
  5
144
  8
2D_OUTLINE$02_SWITCHPLATE
 10
-67.11370896981515
 20
-0.1099978539110031
 30
0.0
  0
VERTEX
  5
145
  8
2D_OUTLINE$02_SWITCHPLATE
 10
-64.68263448247811
 20
13.67731068825987
 30
0.0
  0
VERTEX
  5
146
  8
2D_OUTLINE$02_SWITCHPLATE
 10
-50.89532594030715
 20
11.24623620092279
 30
0.0
  0
SEQEND
  5
147
  8
2D_OUTLINE$02_SWITCHPLATE
  0
POLYLINE
  5
148
  8
2D_OUTLINE$02_SWITCHPLATE
 66
     1
 10
0.0
 20
0.0
 30
0.0
 70
     1
1001
RHINO
1002
{
1000
Row
1000
2
1002
}
  0
VERTEX
  5
149
  8
2D_OUTLINE$02_SWITCHPLATE
 10
-28.36331688672096
 20
29.32703180210176
 30
0.0
  0
VERTEX
  5
14A
  8
2D_OUTLINE$02_SWITCHPLATE
 10
-42.15062542889189
 20
31.75810628943884
 30
0.0
  0
VERTEX
  5
14B
  8
2D_OUTLINE$02_SWITCHPLATE
 10
-39.71955094155481
 20
45.54541483160971
 30
0.0
  0
VERTEX
  5
14C
  8
2D_OUTLINE$02_SWITCHPLATE
 10
-25.93224239938388
 20
43.11434034427263
 30
0.0
  0
SEQEND
  5
14D
  8
2D_OUTLINE$02_SWITCHPLATE
  0
POLYLINE
  5
14E
  8
2D_OUTLINE$02_SWITCHPLATE
 66
     1
 10
0.0
 20
0.0
 30
0.0
 70
     1
1001
RHINO
1002
{
1000
Row
1000
4
1002
}
  0
VERTEX
  5
14F
  8
2D_OUTLINE$02_SWITCHPLATE
 10
-34.97931245583113
 20
-8.19414358766345
 30
0.0
  0
VERTEX
  5
150
  8
2D_OUTLINE$02_SWITCHPLATE
 10
-48.76662099800208
 20
-5.763069100326374
 30
0.0
  0
VERTEX
  5
151
  8
2D_OUTLINE$02_SWITCHPLATE
 10
-46.335546510665
 20
8.024239441844552
 30
0.0
  0
VERTEX
  5
152
  8
2D_OUTLINE$02_SWITCHPLATE
 10
-32.54823796849406
 20
5.593164954507476
 30
0.0
  0
SEQEND
  5
153
  8
2D_OUTLINE$02_SWITCHPLATE
  0
POLYLINE
  5
154
  8
2D_OUTLINE$02_SWITCHPLATE
 66
     1
 10
0.0
 20
0.0
 30
0.0
 70
     1
1001
RHINO
1002
{
1000
Row
1000
3
1002
}
  0
VERTEX
  5
155
  8
2D_OUTLINE$02_SWITCHPLATE
 10
-31.67131467127605
 20
10.56644410721924
 30
0.0
  0
VERTEX
  5
156
  8
2D_OUTLINE$02_SWITCHPLATE
 10
-45.45862321344693
 20
12.99751859455631
 30
0.0
  0
VERTEX
  5
157
  8
2D_OUTLINE$02_SWITCHPLATE
 10
-43.02754872610985
 20
26.78482713672719
 30
0.0
  0
VERTEX
  5
158
  8
2D_OUTLINE$02_SWITCHPLATE
 10
-29.24024018393897
 20
24.35375264939011
 30
0.0
  0
SEQEND
  5
159
  8
2D_OUTLINE$02_SWITCHPLATE
  0
POLYLINE
  5
15A
  8
2D_OUTLINE$02_SWITCHPLATE
 66
     1
 10
0.0
 20
0.0
 30
0.0
 70
     1
1001
RHINO
1002
{
1000
Row
1000
2
1002
}
  0
VERTEX
  5
15B
  8
2D_OUTLINE$02_SWITCHPLATE
 10
-65.05749283034723
 20
40.63317429493252
 30
0.0
  0
VERTEX
  5
15C
  8
2D_OUTLINE$02_SWITCHPLATE
 10
-78.84480137251816
 20
43.06424878226959
 30
0.0
  0
VERTEX
  5
15D
  8
2D_OUTLINE$02_SWITCHPLATE
 10
-76.41372688518109
 20
56.85155732444047
 30
0.0
  0
VERTEX
  5
15E
  8
2D_OUTLINE$02_SWITCHPLATE
 10
-62.62641834301016
 20
54.42048283710339
 30
0.0
  0
SEQEND
  5
15F
  8
2D_OUTLINE$02_SWITCHPLATE
  0
POLYLINE
  5
160
  8
2D_OUTLINE$02_SWITCHPLATE
 66
     1
 10
0.0
 20
0.0
 30
0.0
 70
     1
1001
RHINO
1002
{
1000
Row
1000
4
1002
}
  0
VERTEX
  5
161
  8
2D_OUTLINE$02_SWITCHPLATE
 10
-71.67348839945743
 20
3.111998905167364
 30
0.0
  0
VERTEX
  5
162
  8
2D_OUTLINE$02_SWITCHPLATE
 10
-85.46079694162833
 20
5.543073392504437
 30
0.0
  0
VERTEX
  5
163
  8
2D_OUTLINE$02_SWITCHPLATE
 10
-83.02972245429126
 20
19.33038193467537
 30
0.0
  0
VERTEX
  5
164
  8
2D_OUTLINE$02_SWITCHPLATE
 10
-69.24241391212036
 20
16.89930744733829
 30
0.0
  0
SEQEND
  5
165
  8
2D_OUTLINE$02_SWITCHPLATE
  0
POLYLINE
  5
166
  8
2D_OUTLINE$02_SWITCHPLATE
 66
     1
 10
0.0
 20
0.0
 30
0.0
 70
     1
1001
RHINO
1002
{
1000
Row
1000
3
1002
}
  0
VERTEX
  5
167
  8
2D_OUTLINE$02_SWITCHPLATE
 10
-68.36549061490234
 20
21.87258660005006
 30
0.0
  0
VERTEX
  5
168
  8
2D_OUTLINE$02_SWITCHPLATE
 10
-82.15279915707322
 20
24.30366108738713
 30
0.0
  0
VERTEX
  5
169
  8
2D_OUTLINE$02_SWITCHPLATE
 10
-79.72172466973618
 20
38.09096962955801
 30
0.0
  0
VERTEX
  5
16A
  8
2D_OUTLINE$02_SWITCHPLATE
 10
-65.93441612756524
 20
35.65989514222093
 30
0.0
  0
SEQEND
  5
16B
  8
2D_OUTLINE$02_SWITCHPLATE
  0
POLYLINE
  5
16C
  8
2D_OUTLINE$02_SWITCHPLATE
 66
     1
 10
0.0
 20
0.0
 30
0.0
 70
     1
1001
RHINO
1002
{
1000
Row
1000
3
1002
}
  0
VERTEX
  5
16D
  8
2D_OUTLINE$02_SWITCHPLATE
 10
-101.7403862980946
 20
22.92151194822154
 30
0.0
  0
VERTEX
  5
16E
  8
2D_OUTLINE$02_SWITCHPLATE
 10
-87.95307775592372
 20
20.49043746088446
 30
0.0
  0
VERTEX
  5
16F
  8
2D_OUTLINE$02_SWITCHPLATE
 10
-85.52200326858664
 20
34.27774600305533
 30
0.0
  0
VERTEX
  5
170
  8
2D_OUTLINE$02_SWITCHPLATE
 10
-99.30931181075758
 20
36.70882049039241
 30
0.0
  0
SEQEND
  5
171
  8
2D_OUTLINE$02_SWITCHPLATE
  0
POLYLINE
  5
172
  8
2D_OUTLINE$02_SWITCHPLATE
 66
     1
 10
0.0
 20
0.0
 30
0.0
 70
     1
1001
RHINO
1002
{
1000
Row
1000
4
1002
}
  0
VERTEX
  5
173
  8
2D_OUTLINE$02_SWITCHPLATE
 10
-105.0483840826498
 20
4.160924253339014
 30
0.0
  0
VERTEX
  5
174
  8
2D_OUTLINE$02_SWITCHPLATE
 10
-91.26107554047886
 20
1.729849766001937
 30
0.0
  0
VERTEX
  5
175
  8
2D_OUTLINE$02_SWITCHPLATE
 10
-88.83000105314179
 20
15.51715830817287
 30
0.0
  0
VERTEX
  5
176
  8
2D_OUTLINE$02_SWITCHPLATE
 10
-102.6173095953127
 20
17.94823279550995
 30
0.0
  0
SEQEND
  5
177
  8
2D_OUTLINE$02_SWITCHPLATE
  0
POLYLINE
  5
178
  8
2D_OUTLINE$02_SWITCHPLATE
 66
     1
 10
0.0
 20
0.0
 30
0.0
 70
     1
1001
RHINO
1002
{
1000
Row
1000
2
1002
}
  0
VERTEX
  5
179
  8
2D_OUTLINE$02_SWITCHPLATE
 10
-98.43238851353951
 20
41.68209964310405
 30
0.0
  0
VERTEX
  5
17A
  8
2D_OUTLINE$02_SWITCHPLATE
 10
-84.64507997136855
 20
39.25102515576697
 30
0.0
  0
VERTEX
  5
17B
  8
2D_OUTLINE$02_SWITCHPLATE
 10
-82.2140054840315
 20
53.03833369793784
 30
0.0
  0
VERTEX
  5
17C
  8
2D_OUTLINE$02_SWITCHPLATE
 10
-96.00131402620244
 20
55.46940818527492
 30
0.0
  0
SEQEND
  5
17D
  8
2D_OUTLINE$02_SWITCHPLATE
  0
POLYLINE
  5
17E
  8
2D_OUTLINE$02_SWITCHPLATE
 66
     1
 10
0.0
 20
0.0
 30
0.0
 70
     1
1001
RHINO
1002
{
1000
Row
1000
3
1002
}
  0
VERTEX
  5
17F
  8
2D_OUTLINE$02_SWITCHPLATE
 10
-121.3279734391159
 20
21.53936280905604
 30
0.0
  0
VERTEX
  5
180
  8
2D_OUTLINE$02_SWITCHPLATE
 10
-107.540664896945
 20
19.10828832171897
 30
0.0
  0
VERTEX
  5
181
  8
2D_OUTLINE$02_SWITCHPLATE
 10
-105.1095904096079
 20
32.89559686388984
 30
0.0
  0
VERTEX
  5
182
  8
2D_OUTLINE$02_SWITCHPLATE
 10
-118.8968989517788
 20
35.32667135122691
 30
0.0
  0
SEQEND
  5
183
  8
2D_OUTLINE$02_SWITCHPLATE
  0
POLYLINE
  5
184
  8
2D_OUTLINE$02_SWITCHPLATE
 66
     1
 10
0.0
 20
0.0
 30
0.0
 70
     1
1001
RHINO
1002
{
1000
Row
1000
4
1002
}
  0
VERTEX
  5
185
  8
2D_OUTLINE$02_SWITCHPLATE
 10
-124.635971223671
 20
2.778775114173407
 30
0.0
  0
VERTEX
  5
186
  8
2D_OUTLINE$02_SWITCHPLATE
 10
-110.8486626815001
 20
0.3477006268363318
 30
0.0
  0
VERTEX
  5
187
  8
2D_OUTLINE$02_SWITCHPLATE
 10
-108.417588194163
 20
14.13500916900726
 30
0.0
  0
VERTEX
  5
188
  8
2D_OUTLINE$02_SWITCHPLATE
 10
-122.2048967363339
 20
16.56608365634434
 30
0.0
  0
SEQEND
  5
189
  8
2D_OUTLINE$02_SWITCHPLATE
  0
POLYLINE
  5
18A
  8
2D_OUTLINE$02_SWITCHPLATE
 66
     1
 10
0.0
 20
0.0
 30
0.0
 70
     1
1001
RHINO
1002
{
1000
Row
1000
4
1002
}
  0
VERTEX
  5
18B
  8
2D_OUTLINE$02_SWITCHPLATE
 10
-66.42819178271003
 20
-21.99273460571337
 30
0.0
  0
VERTEX
  5
18C
  8
2D_OUTLINE$02_SWITCHPLATE
 10
-80.21550032488094
 20
-19.5616601183763
 30
0.0
  0
VERTEX
  5
18D
  8
2D_OUTLINE$02_SWITCHPLATE
 10
-77.78442583754386
 20
-5.774351576205363
 30
0.0
  0
VERTEX
  5
18E
  8
2D_OUTLINE$02_SWITCHPLATE
 10
-63.99711729537295
 20
-8.205426063542443
 30
0.0
  0
SEQEND
  5
18F
  8
2D_OUTLINE$02_SWITCHPLATE
  0
POLYLINE
  5
190
  8
2D_OUTLINE$02_SWITCHPLATE
 66
     1
 10
0.0
 20
0.0
 30
0.0
 70
     1
1001
RHINO
1002
{
1000
Row
1000
4
1002
}
  0
VERTEX
  5
191
  8
2D_OUTLINE$02_SWITCHPLATE
 10
-47.98799243457882
 20
-28.19699483165054
 30
0.0
  0
VERTEX
  5
192
  8
2D_OUTLINE$02_SWITCHPLATE
 10
-61.14368912558149
 20
-23.40871282509111
 30
0.0
  0
VERTEX
  5
193
  8
2D_OUTLINE$02_SWITCHPLATE
 10
-56.35540711902207
 20
-10.25301613408839
 30
0.0
  0
VERTEX
  5
194
  8
2D_OUTLINE$02_SWITCHPLATE
 10
-43.19971042801937
 20
-15.04129814064782
 30
0.0
  0
SEQEND
  5
195
  8
2D_OUTLINE$02_SWITCHPLATE
  0
POLYLINE
  5
196
  8
2D_OUTLINE$02_SWITCHPLATE
 66
     1
 10
0.0
 20
0.0
 30
0.0
 70
     1
1001
RHINO
1002
{
1000
Row
1000
4
1002
}
  0
VERTEX
  5
197
  8
2D_OUTLINE$02_SWITCHPLATE
 10
-30.90529963145396
 20
-37.50910541647666
 30
0.0
  0
VERTEX
  5
198
  8
2D_OUTLINE$02_SWITCHPLATE
 10
-43.02965528443602
 20
-30.50910541647659
 30
0.0
  0
VERTEX
  5
199
  8
2D_OUTLINE$02_SWITCHPLATE
 10
-36.02965528443594
 20
-18.38474976349445
 30
0.0
  0
VERTEX
  5
19A
  8
2D_OUTLINE$02_SWITCHPLATE
 10
-23.90529963145385
 20
-25.38474976349454
 30
0.0
  0
SEQEND
  5
19B
  8
2D_OUTLINE$02_SWITCHPLATE
  0
ENDSEC
  0
EOF
